<?xml version="1.0" encoding="UTF-8" standalone="no"?>
<!DOCTYPE svg PUBLIC "-//W3C//DTD SVG 1.1//EN"
 "http://www.w3.org/Graphics/SVG/1.1/DTD/svg11.dtd">
<!-- Generated by graphviz version 2.40.1 (20161225.0304)
 -->
<!-- Title: dependencies Pages: 1 -->
<svg width="582pt" height="211pt"
 viewBox="0.00 0.00 582.00 211.00" xmlns="http://www.w3.org/2000/svg" xmlns:xlink="http://www.w3.org/1999/xlink">
<g id="graph0" class="graph" transform="scale(1 1) rotate(0) translate(4 207)">
<title>dependencies</title>
<polygon fill="#ffffff" stroke="transparent" points="-4,4 -4,-207 578,-207 578,4 -4,4"/>
<text text-anchor="start" x="266.0091" y="-42.4" font-family="sans-serif" font-weight="bold" font-size="14.00" fill="#000000">Legend</text>
<polygon fill="#ffffb3" stroke="transparent" points="53,-10 53,-30 73,-30 73,-10 53,-10"/>
<text text-anchor="start" x="76.629" y="-15.4" font-family="sans-serif" font-size="14.00" fill="#000000"> &#160;Declarations</text>
<polygon fill="#8dd3c7" stroke="transparent" points="166,-10 166,-30 186,-30 186,-10 166,-10"/>
<text text-anchor="start" x="189.7251" y="-15.4" font-family="sans-serif" font-size="14.00" fill="#000000"> &#160;Module</text>
<polygon fill="#80b1d3" stroke="transparent" points="252,-10 252,-30 272,-30 272,-10 252,-10"/>
<text text-anchor="start" x="275.7812" y="-15.4" font-family="sans-serif" font-size="14.00" fill="#000000"> &#160;Bootstrap</text>
<polygon fill="#fdb462" stroke="transparent" points="349,-10 349,-30 369,-30 369,-10 349,-10"/>
<text text-anchor="start" x="372.6732" y="-15.4" font-family="sans-serif" font-size="14.00" fill="#000000"> &#160;Providers</text>
<polygon fill="#fb8072" stroke="transparent" points="445,-10 445,-30 465,-30 465,-10 445,-10"/>
<text text-anchor="start" x="468.7258" y="-15.4" font-family="sans-serif" font-size="14.00" fill="#000000"> &#160;Exports</text>
<g id="clust1" class="cluster">
<title>cluster_BlocksModule</title>
<polygon fill="none" stroke="#000000" stroke-dasharray="1,5" points="8,-70 8,-195 390,-195 390,-70 8,-70"/>
</g>
<g id="clust2" class="cluster">
<title>cluster_BlocksModule_declarations</title>
<polygon fill="none" stroke="#000000" points="16,-78 16,-130 382,-130 382,-78 16,-78"/>
</g>
<g id="clust9" class="cluster">
<title>cluster_CardsModule</title>
<polygon fill="none" stroke="#000000" stroke-dasharray="1,5" points="398,-70 398,-195 566,-195 566,-70 398,-70"/>
</g>
<g id="clust10" class="cluster">
<title>cluster_CardsModule_declarations</title>
<polygon fill="none" stroke="#000000" points="406,-78 406,-130 558,-130 558,-78 406,-78"/>
</g>
<!-- QuoteBlockComponent -->
<g id="node1" class="node">
<title>QuoteBlockComponent</title>
<polygon fill="#ffffb3" stroke="#000000" points="374.486,-122 225.514,-122 225.514,-86 374.486,-86 374.486,-122"/>
<text text-anchor="middle" x="300" y="-99.8" font-family="Times,serif" font-size="14.00" fill="#000000">QuoteBlockComponent</text>
</g>
<!-- BlocksModule -->
<g id="node3" class="node">
<title>BlocksModule</title>
<polygon fill="#8dd3c7" stroke="#000000" points="257.4372,-187 254.4372,-191 233.4372,-191 230.4372,-187 158.5628,-187 158.5628,-151 257.4372,-151 257.4372,-187"/>
<text text-anchor="middle" x="208" y="-164.8" font-family="Times,serif" font-size="14.00" fill="#000000">BlocksModule</text>
</g>
<!-- QuoteBlockComponent&#45;&gt;BlocksModule -->
<g id="edge1" class="edge">
<title>QuoteBlockComponent&#45;&gt;BlocksModule</title>
<path fill="none" stroke="#000000" d="M241.3626,-122.1061C241.3626,-122.1061 241.3626,-140.991 241.3626,-140.991"/>
<polygon fill="#000000" stroke="#000000" points="237.8626,-140.9909 241.3626,-150.991 244.8626,-140.991 237.8626,-140.9909"/>
</g>
<!-- SlantedImageTextComponent -->
<g id="node2" class="node">
<title>SlantedImageTextComponent</title>
<polygon fill="#ffffb3" stroke="#000000" points="207.9636,-122 24.0364,-122 24.0364,-86 207.9636,-86 207.9636,-122"/>
<text text-anchor="middle" x="116" y="-99.8" font-family="Times,serif" font-size="14.00" fill="#000000">SlantedImageTextComponent</text>
</g>
<!-- SlantedImageTextComponent&#45;&gt;BlocksModule -->
<g id="edge2" class="edge">
<title>SlantedImageTextComponent&#45;&gt;BlocksModule</title>
<path fill="none" stroke="#000000" d="M183.3819,-122.1061C183.3819,-122.1061 183.3819,-140.991 183.3819,-140.991"/>
<polygon fill="#000000" stroke="#000000" points="179.8819,-140.9909 183.3819,-150.991 186.8819,-140.991 179.8819,-140.9909"/>
</g>
<!-- HeroCardComponent -->
<g id="node4" class="node">
<title>HeroCardComponent</title>
<polygon fill="#ffffb3" stroke="#000000" points="550.0268,-122 413.9732,-122 413.9732,-86 550.0268,-86 550.0268,-122"/>
<text text-anchor="middle" x="482" y="-99.8" font-family="Times,serif" font-size="14.00" fill="#000000">HeroCardComponent</text>
</g>
<!-- CardsModule -->
<g id="node5" class="node">
<title>CardsModule</title>
<polygon fill="#8dd3c7" stroke="#000000" points="528.2064,-187 525.2064,-191 504.2064,-191 501.2064,-187 435.7936,-187 435.7936,-151 528.2064,-151 528.2064,-187"/>
<text text-anchor="middle" x="482" y="-164.8" font-family="Times,serif" font-size="14.00" fill="#000000">CardsModule</text>
</g>
<!-- HeroCardComponent&#45;&gt;CardsModule -->
<g id="edge3" class="edge">
<title>HeroCardComponent&#45;&gt;CardsModule</title>
<path fill="none" stroke="#000000" d="M482,-122.1061C482,-122.1061 482,-140.991 482,-140.991"/>
<polygon fill="#000000" stroke="#000000" points="478.5001,-140.9909 482,-150.991 485.5001,-140.991 478.5001,-140.9909"/>
</g>
</g>
</svg>
