<?xml version="1.0" encoding="UTF-8" standalone="no"?>
<!DOCTYPE svg PUBLIC "-//W3C//DTD SVG 1.1//EN"
 "http://www.w3.org/Graphics/SVG/1.1/DTD/svg11.dtd">
<!-- Generated by graphviz version 2.40.1 (20161225.0304)
 -->
<!-- Title: dependencies Pages: 1 -->
<svg width="645pt" height="211pt"
 viewBox="0.00 0.00 645.00 211.00" xmlns="http://www.w3.org/2000/svg" xmlns:xlink="http://www.w3.org/1999/xlink">
<g id="graph0" class="graph" transform="scale(1 1) rotate(0) translate(4 207)">
<title>dependencies</title>
<polygon fill="#ffffff" stroke="transparent" points="-4,4 -4,-207 641,-207 641,4 -4,4"/>
<text text-anchor="start" x="297.5091" y="-42.4" font-family="sans-serif" font-weight="bold" font-size="14.00" fill="#000000">Legend</text>
<polygon fill="#ffffb3" stroke="transparent" points="84.5,-10 84.5,-30 104.5,-30 104.5,-10 84.5,-10"/>
<text text-anchor="start" x="108.129" y="-15.4" font-family="sans-serif" font-size="14.00" fill="#000000"> &#160;Declarations</text>
<polygon fill="#8dd3c7" stroke="transparent" points="197.5,-10 197.5,-30 217.5,-30 217.5,-10 197.5,-10"/>
<text text-anchor="start" x="221.2251" y="-15.4" font-family="sans-serif" font-size="14.00" fill="#000000"> &#160;Module</text>
<polygon fill="#80b1d3" stroke="transparent" points="283.5,-10 283.5,-30 303.5,-30 303.5,-10 283.5,-10"/>
<text text-anchor="start" x="307.2812" y="-15.4" font-family="sans-serif" font-size="14.00" fill="#000000"> &#160;Bootstrap</text>
<polygon fill="#fdb462" stroke="transparent" points="380.5,-10 380.5,-30 400.5,-30 400.5,-10 380.5,-10"/>
<text text-anchor="start" x="404.1732" y="-15.4" font-family="sans-serif" font-size="14.00" fill="#000000"> &#160;Providers</text>
<polygon fill="#fb8072" stroke="transparent" points="476.5,-10 476.5,-30 496.5,-30 496.5,-10 476.5,-10"/>
<text text-anchor="start" x="500.2258" y="-15.4" font-family="sans-serif" font-size="14.00" fill="#000000"> &#160;Exports</text>
<g id="clust1" class="cluster">
<title>cluster_AppModule</title>
<polygon fill="none" stroke="#000000" stroke-dasharray="1,5" points="8,-70 8,-195 629,-195 629,-70 8,-70"/>
</g>
<g id="clust2" class="cluster">
<title>cluster_AppModule_declarations</title>
<polygon fill="none" stroke="#000000" points="16,-78 16,-130 621,-130 621,-78 16,-78"/>
</g>
<!-- HeroCardComponent -->
<g id="node1" class="node">
<title>HeroCardComponent</title>
<polygon fill="#ffffb3" stroke="#000000" points="613.0268,-122 476.9732,-122 476.9732,-86 613.0268,-86 613.0268,-122"/>
<text text-anchor="middle" x="545" y="-99.8" font-family="Times,serif" font-size="14.00" fill="#000000">HeroCardComponent</text>
</g>
<!-- AppModule -->
<g id="node5" class="node">
<title>AppModule</title>
<polygon fill="#8dd3c7" stroke="#000000" points="362.6571,-187 359.6571,-191 338.6571,-191 335.6571,-187 279.3429,-187 279.3429,-151 362.6571,-151 362.6571,-187"/>
<text text-anchor="middle" x="321" y="-164.8" font-family="Times,serif" font-size="14.00" fill="#000000">AppModule</text>
</g>
<!-- HeroCardComponent&#45;&gt;AppModule -->
<g id="edge1" class="edge">
<title>HeroCardComponent&#45;&gt;AppModule</title>
<path fill="none" stroke="#000000" d="M545,-122.1061C545,-141.3391 545,-169 545,-169 545,-169 372.8699,-169 372.8699,-169"/>
<polygon fill="#000000" stroke="#000000" points="372.87,-165.5001 362.8699,-169 372.8699,-172.5001 372.87,-165.5001"/>
</g>
<!-- QuoteBlockComponent -->
<g id="node2" class="node">
<title>QuoteBlockComponent</title>
<polygon fill="#ffffb3" stroke="#000000" points="458.486,-122 309.514,-122 309.514,-86 458.486,-86 458.486,-122"/>
<text text-anchor="middle" x="384" y="-99.8" font-family="Times,serif" font-size="14.00" fill="#000000">QuoteBlockComponent</text>
</g>
<!-- QuoteBlockComponent&#45;&gt;AppModule -->
<g id="edge2" class="edge">
<title>QuoteBlockComponent&#45;&gt;AppModule</title>
<path fill="none" stroke="#000000" d="M336.1676,-122.1061C336.1676,-122.1061 336.1676,-140.991 336.1676,-140.991"/>
<polygon fill="#000000" stroke="#000000" points="332.6677,-140.9909 336.1676,-150.991 339.6677,-140.991 332.6677,-140.9909"/>
</g>
<!-- SafePipe -->
<g id="node3" class="node">
<title>SafePipe</title>
<polygon fill="#ffffb3" stroke="#000000" points="291.7606,-122 226.2394,-122 226.2394,-86 291.7606,-86 291.7606,-122"/>
<text text-anchor="middle" x="259" y="-99.8" font-family="Times,serif" font-size="14.00" fill="#000000">SafePipe</text>
</g>
<!-- SafePipe&#45;&gt;AppModule -->
<g id="edge3" class="edge">
<title>SafePipe&#45;&gt;AppModule</title>
<path fill="none" stroke="#000000" d="M285.526,-122.1061C285.526,-122.1061 285.526,-140.991 285.526,-140.991"/>
<polygon fill="#000000" stroke="#000000" points="282.026,-140.9909 285.526,-150.991 289.026,-140.991 282.026,-140.9909"/>
</g>
<!-- SlantedImageTextComponent -->
<g id="node4" class="node">
<title>SlantedImageTextComponent</title>
<polygon fill="#ffffb3" stroke="#000000" points="207.9636,-122 24.0364,-122 24.0364,-86 207.9636,-86 207.9636,-122"/>
<text text-anchor="middle" x="116" y="-99.8" font-family="Times,serif" font-size="14.00" fill="#000000">SlantedImageTextComponent</text>
</g>
<!-- SlantedImageTextComponent&#45;&gt;AppModule -->
<g id="edge4" class="edge">
<title>SlantedImageTextComponent&#45;&gt;AppModule</title>
<path fill="none" stroke="#000000" d="M116,-122.1061C116,-141.3391 116,-169 116,-169 116,-169 269.0205,-169 269.0205,-169"/>
<polygon fill="#000000" stroke="#000000" points="269.0205,-172.5001 279.0205,-169 269.0205,-165.5001 269.0205,-172.5001"/>
</g>
</g>
</svg>
